<?xml version="1.0" standalone="no"?>
<!DOCTYPE svg PUBLIC "-//W3C//DTD SVG 20010904//EN"
 "http://www.w3.org/TR/2001/REC-SVG-20010904/DTD/svg10.dtd">
<svg version="1.0" xmlns="http://www.w3.org/2000/svg"
 width="300.000000pt" height="501.000000pt" viewBox="0 0 300.000000 501.000000"
 preserveAspectRatio="xMidYMid meet">

<g transform="translate(0.000000,501.000000) scale(0.100000,-0.100000)"
fill="#000000" stroke="none">
<path d="M1477 4843 c-3 -5 -8 -61 -12 -125 -8 -131 -2 -122 -95 -133 -30 -4
-92 -16 -138 -27 -46 -11 -84 -19 -86 -17 -24 29 -96 153 -106 181 -11 37 -26
55 -37 45 -12 -13 13 -73 63 -149 29 -46 54 -87 54 -93 0 -5 -28 -25 -63 -43
-35 -18 -92 -55 -126 -83 l-63 -50 -46 37 c-26 21 -68 57 -93 82 -31 29 -49
40 -54 32 -8 -13 16 -43 66 -79 19 -14 54 -42 78 -63 l42 -36 -43 -59 c-24
-33 -61 -101 -82 -151 -21 -51 -43 -92 -49 -92 -5 0 -41 18 -79 40 -77 44 -88
47 -88 25 0 -9 34 -31 85 -55 76 -35 85 -42 81 -62 -6 -27 -25 -179 -29 -223
-2 -28 -4 -30 -37 -27 -19 2 -57 13 -83 24 -46 20 -65 20 -53 -1 9 -13 111
-51 140 -51 32 0 42 -16 50 -75 4 -27 9 -58 12 -67 4 -13 -3 -17 -27 -20 -41
-4 -70 -42 -76 -100 -4 -38 0 -56 31 -114 56 -105 90 -127 164 -108 35 10 26
24 -15 24 -58 0 -85 20 -120 85 -40 77 -44 135 -8 170 13 14 28 25 32 25 21
-1 61 -50 77 -93 13 -34 35 -63 82 -104 35 -31 64 -60 64 -64 0 -4 -10 -9 -23
-13 -104 -26 -316 -253 -357 -381 -10 -33 -26 -80 -35 -104 -23 -63 -29 -255
-11 -335 8 -34 14 -75 14 -91 -2 -87 50 -186 144 -277 l69 -68 -7 -46 c-4 -26
-20 -86 -36 -133 -49 -141 -39 -244 29 -288 25 -17 27 -16 94 20 38 20 75 37
82 37 14 -1 77 -56 77 -67 0 -5 -26 -22 -57 -39 -65 -35 -83 -61 -36 -51 24 5
35 1 52 -17 22 -24 19 -36 -9 -36 -20 0 -46 -27 -36 -37 3 -4 27 3 53 16 45
22 48 22 60 5 7 -10 12 -22 11 -26 -2 -5 -32 -23 -67 -41 -73 -36 -94 -64 -41
-52 27 6 37 2 61 -21 16 -15 29 -30 29 -34 0 -3 -18 -16 -40 -30 -22 -14 -40
-30 -40 -37 0 -19 11 -16 64 18 l48 30 24 -22 c13 -12 24 -28 24 -34 0 -13
-56 -35 -88 -35 -28 0 -30 -35 -4 -49 11 -6 31 -26 46 -45 l27 -36 -33 -20
c-18 -11 -37 -21 -42 -23 -5 -2 -6 -9 -2 -16 6 -9 16 -7 42 9 20 11 41 20 49
20 14 0 65 -49 65 -62 0 -4 -18 -19 -40 -33 -22 -14 -40 -30 -40 -35 0 -17 30
-11 68 15 l36 25 28 -27 c33 -31 23 -57 -13 -35 -18 11 -24 11 -39 -3 -64 -58
-302 102 -343 230 -28 90 -49 268 -45 392 2 93 0 117 -11 121 -12 4 -13 -27
-8 -199 11 -319 26 -371 142 -477 58 -53 120 -87 183 -101 53 -11 55 -13 39
-34 -11 -16 -19 -15 -114 6 -94 21 -104 26 -125 56 -29 43 -106 84 -141 76
-29 -8 -102 -77 -123 -117 -13 -25 -12 -29 16 -61 l29 -34 -24 -23 c-25 -24
-34 -70 -14 -70 7 0 9 -12 5 -34 -5 -24 -2 -37 9 -46 8 -7 15 -21 15 -31 0
-12 10 -23 25 -29 21 -8 24 -14 19 -38 l-6 -29 127 -7 c133 -7 169 -18 242
-73 107 -81 375 -84 448 -5 14 15 25 37 25 49 0 31 -48 160 -76 205 -13 21
-24 44 -24 51 0 8 -11 27 -25 43 -30 34 -30 41 -8 66 13 14 14 21 5 30 -18 18
-15 59 3 52 11 -5 15 1 15 19 0 17 7 28 20 32 11 4 41 23 67 42 l47 36 20 -25
c12 -14 32 -29 46 -33 14 -4 39 -14 57 -22 l31 -14 -5 -93 c-4 -65 -2 -95 6
-100 8 -5 0 -21 -22 -49 -70 -88 -92 -179 -57 -235 24 -40 136 -95 191 -95 19
0 75 17 125 37 87 37 192 69 324 102 40 10 83 29 114 52 28 20 64 42 80 47 17
6 37 23 46 40 8 16 24 37 35 46 17 15 19 21 9 48 -10 24 -9 33 2 42 20 17 17
34 -12 79 -19 29 -25 47 -20 65 8 30 -31 125 -66 162 -34 36 -79 31 -118 -13
-17 -20 -39 -52 -48 -70 -8 -19 -21 -34 -27 -34 -6 0 -62 -7 -125 -15 -62 -8
-116 -13 -118 -10 -3 2 16 14 42 25 121 51 176 134 206 313 13 72 8 261 -9
361 -9 56 -8 61 16 90 23 28 25 35 19 96 -4 36 -14 85 -23 110 -8 25 -16 74
-17 110 -1 64 0 67 56 145 74 106 140 239 172 350 15 50 32 107 38 127 30 100
-21 376 -83 448 -16 19 -45 58 -64 85 -51 74 -61 85 -77 85 -15 0 -79 27 -133
56 -16 9 -60 32 -97 51 -38 19 -68 38 -68 43 0 4 14 13 30 20 41 17 45 26 21
52 -29 30 -26 43 10 59 30 12 33 11 51 -14 11 -15 24 -24 30 -21 5 4 3 13 -7
24 -11 12 -14 26 -10 41 6 18 4 21 -10 15 -18 -6 -65 27 -65 46 0 4 17 15 37
23 36 15 37 15 61 -12 l23 -28 -5 35 c-5 31 -3 37 27 54 39 23 20 33 -22 12
-29 -15 -30 -15 -55 15 -33 38 -33 47 1 60 23 9 30 6 50 -18 l24 -28 -6 36
c-5 31 -2 39 20 53 58 38 86 86 49 82 -9 0 -22 8 -30 20 -13 19 -11 22 37 48
l51 28 -21 22 c-29 30 -27 42 14 77 l35 31 -35 33 c-41 38 -43 50 -13 82 17
18 18 23 6 23 -9 0 -21 -7 -28 -15 -18 -21 -37 -19 -51 6 -9 17 -8 24 2 30 8
4 23 14 34 22 19 15 18 16 -14 46 -39 36 -56 39 -71 11 -6 -11 -17 -20 -25
-20 -8 0 -15 -6 -15 -14 0 -7 -18 -30 -40 -50 -22 -20 -40 -38 -40 -41 0 -14
24 -1 60 31 21 20 44 33 50 29 17 -11 11 -25 -17 -37 -16 -7 -39 -23 -53 -37
l-25 -24 27 7 c22 5 30 1 47 -23 l21 -29 -32 -23 -31 -23 -15 22 c-8 12 -18
22 -23 22 -5 0 -2 -12 8 -26 16 -25 16 -27 0 -39 -24 -18 -21 -26 7 -19 20 5
27 0 40 -25 21 -40 21 -40 -14 -52 -16 -6 -30 -15 -30 -20 0 -12 12 -11 46 1
22 9 31 8 43 -5 15 -15 14 -18 -8 -36 -34 -28 -55 -24 -85 16 -15 20 -32 33
-37 29 -5 -3 2 -19 16 -36 36 -42 32 -55 -20 -62 -25 -4 -45 -10 -45 -14 0 -4
14 -25 30 -47 27 -34 28 -40 14 -48 -9 -5 -38 -7 -65 -5 -27 3 -49 3 -49 1 0
-3 21 -31 46 -64 25 -32 43 -63 40 -68 -3 -5 -18 -11 -33 -14 -22 -4 -34 2
-60 29 -37 40 -64 46 -34 8 29 -36 26 -50 -5 -29 -14 9 -29 14 -32 10 -10 -10
29 -35 55 -35 21 0 64 -37 84 -73 8 -14 5 -19 -16 -27 -44 -17 -57 -12 -106
36 -28 27 -52 43 -59 39 -7 -4 3 -19 30 -42 24 -21 38 -39 32 -45 -15 -15 -81
-12 -100 5 -10 10 -23 17 -29 17 -6 0 -16 7 -23 15 -13 16 -50 21 -50 7 0 -5
11 -14 24 -20 13 -6 26 -22 28 -36 l5 -25 -214 -1 c-214 0 -312 -9 -431 -36
l-62 -14 -36 32 c-83 76 -107 104 -124 142 -9 23 -26 61 -38 86 -25 56 -42
145 -42 224 0 85 22 227 36 233 7 2 10 13 7 23 -5 17 28 107 64 175 9 17 23
44 31 60 9 17 54 69 101 116 67 66 103 94 161 122 162 77 291 102 496 95 141
-5 156 -8 265 -45 124 -43 193 -85 284 -177 86 -86 119 -145 184 -326 19 -53
28 -98 36 -178 l6 -72 -28 -11 c-28 -11 -28 -11 -5 -20 19 -7 22 -16 22 -64 0
-115 -68 -275 -184 -431 -26 -36 -45 -68 -41 -72 9 -9 74 66 126 146 23 34 48
62 56 62 51 0 77 -64 48 -119 -26 -52 -90 -109 -129 -117 -37 -6 -40 -24 -4
-24 42 0 87 32 129 93 36 50 44 70 44 105 0 36 -5 48 -28 68 -15 13 -35 24
-44 24 -11 0 -13 5 -8 18 24 57 45 139 56 223 l12 97 51 20 c28 12 67 24 87
27 43 8 66 21 56 32 -5 4 -46 -5 -92 -21 -46 -16 -88 -26 -93 -22 -13 8 -21
55 -27 150 -3 43 -7 81 -10 85 -7 13 22 34 123 91 84 48 109 70 81 70 -14 0
-114 -56 -163 -92 -21 -15 -43 -28 -47 -28 -5 0 -30 42 -55 92 -26 51 -57 106
-69 123 -44 59 -43 69 24 155 58 75 71 100 53 100 -5 0 -36 -38 -70 -85 -34
-47 -66 -85 -71 -85 -4 0 -16 10 -27 21 -34 39 -125 101 -191 130 -35 16 -66
36 -69 43 -3 8 9 54 25 104 35 102 36 112 18 112 -7 0 -19 -21 -26 -47 -25
-91 -44 -148 -52 -159 -7 -8 -31 -6 -87 7 -42 11 -98 19 -123 19 -25 0 -68 3
-94 7 l-48 6 7 124 c4 76 3 123 -3 123 -6 0 -12 -3 -14 -7z m673 -649 c11 -12
10 -18 -3 -32 -16 -15 -18 -15 -34 0 -13 14 -14 20 -3 32 7 9 16 16 20 16 4 0
13 -7 20 -16z m-10 -144 c-32 -25 -34 -25 -55 7 -17 26 -17 27 5 45 23 19 24
19 49 -7 l26 -26 -25 -19z m67 -44 l22 -34 -23 -21 c-12 -11 -25 -21 -29 -21
-3 0 -18 16 -33 35 -26 34 -26 36 -9 55 26 29 47 25 72 -14z m-77 -53 l22 -37
-22 -18 c-31 -25 -43 -23 -69 13 l-23 31 23 24 c31 33 43 30 69 -13z m58 -76
c13 -15 5 -30 -25 -46 -30 -16 -41 -14 -53 9 -9 16 -6 22 17 34 35 19 48 19
61 3z m-49 -123 c28 -35 27 -41 -11 -64 -30 -18 -34 -18 -50 -3 -30 27 -33 54
-7 74 32 25 44 24 68 -7z m-95 -49 c24 -36 20 -53 -16 -60 -27 -6 -35 -3 -55
21 -29 36 -29 42 0 54 37 15 54 11 71 -15z m-30 -128 c32 -42 32 -51 1 -65
-42 -19 -60 -14 -93 27 -36 45 -39 58 -14 64 53 14 81 7 106 -26z m-40 -129
c22 -32 20 -47 -10 -60 -24 -11 -29 -9 -55 20 -33 37 -36 49 -11 55 39 10 62
6 76 -15z m-29 -118 c23 -25 14 -46 -25 -55 -25 -5 -34 -2 -50 17 -25 30 -25
37 3 48 35 14 52 12 72 -10z m-115 -25 c13 -14 21 -27 18 -30 -8 -8 -112 21
-116 33 -3 11 17 19 54 21 11 0 31 -10 44 -24z m-110 -31 c41 -9 83 -17 93
-20 31 -10 7 -24 -41 -25 -38 0 -43 -2 -25 -9 14 -6 43 -5 75 2 69 14 109 3
218 -62 47 -27 92 -50 100 -50 8 0 28 -11 45 -24 l30 -24 -39 -80 c-34 -70
-43 -80 -75 -89 -34 -10 -35 -11 -7 -12 22 -1 27 -5 23 -18 -31 -95 -32 -102
-9 -126 29 -31 28 -37 -10 -69 -42 -34 -32 -45 15 -18 35 21 35 21 54 1 10
-11 29 -41 42 -66 l24 -45 -21 -23 c-22 -24 -29 -47 -14 -47 5 0 17 9 27 20
11 12 22 17 29 11 6 -5 43 -11 83 -13 40 -2 74 -6 77 -9 3 -3 1 -22 -5 -43 -6
-21 -12 -48 -15 -60 -11 -61 -78 -211 -130 -291 -45 -72 -75 -100 -137 -132
-89 -45 -131 -11 -52 42 40 27 56 45 39 45 -3 0 -28 -12 -55 -27 -47 -27 -49
-27 -66 -10 -17 17 -17 19 1 33 13 9 23 11 30 4 33 -33 28 16 -6 59 -17 22
-17 26 -3 33 26 15 17 28 -15 22 -26 -6 -30 -4 -30 15 0 15 -6 21 -24 21 -34
0 -42 28 -11 42 18 8 28 8 39 -1 12 -10 15 -8 14 18 -1 19 -6 31 -15 31 -19 0
-73 41 -73 56 0 6 10 19 23 27 19 14 20 16 4 16 -10 1 -27 -4 -39 -10 -16 -9
-24 -7 -44 12 l-24 22 41 25 41 24 34 -33 c41 -40 56 -32 20 11 -14 18 -24 36
-20 41 3 5 -3 9 -12 9 -18 0 -64 37 -64 52 0 4 18 17 40 28 45 23 52 40 16 40
-13 0 -29 6 -35 14 -10 11 -7 17 10 30 32 22 14 33 -20 13 -16 -9 -36 -17 -45
-17 -9 0 -16 -7 -16 -15 0 -8 -8 -15 -19 -15 -10 0 -24 7 -31 15 -15 19 -30
19 -30 2 0 -12 -12 -21 -62 -45 -36 -17 42 121 81 146 12 7 21 19 21 27 0 8 6
15 13 15 7 0 26 14 43 31 l29 31 -25 -7 c-38 -11 -96 -53 -107 -78 -6 -12 -22
-29 -37 -36 -23 -13 -28 -12 -46 4 -11 10 -20 23 -20 30 0 6 25 29 55 50 59
40 66 56 15 35 -28 -12 -33 -11 -55 10 -21 20 -30 22 -78 16 -42 -6 -56 -4
-67 9 -11 13 -10 18 4 33 25 29 19 35 -15 15 -37 -22 -75 -61 -67 -69 3 -3 15
0 27 8 18 11 23 10 38 -4 15 -16 15 -18 -8 -37 -32 -27 -35 -26 -76 10 -45 39
-56 29 -15 -14 18 -18 32 -36 32 -40 0 -3 -11 -14 -24 -22 -19 -13 -29 -14
-45 -5 -17 9 -21 8 -21 -4 0 -8 5 -18 10 -21 14 -9 2 -25 -19 -25 -11 0 -27
21 -46 58 -33 67 -63 112 -74 112 -5 0 13 -44 40 -97 27 -53 47 -98 46 -99 -1
-2 -20 -15 -41 -29 -37 -25 -39 -25 -58 -8 -14 12 -18 25 -14 45 3 16 2 28 -2
28 -4 0 -27 -18 -52 -39 -47 -41 -50 -66 -4 -36 26 17 28 17 41 -1 15 -21 17
-34 4 -34 -14 0 -91 -52 -91 -62 0 -11 11 -10 39 6 49 27 101 -21 56 -50 -20
-13 -28 -14 -40 -4 -17 14 -38 4 -31 -16 7 -18 -36 -46 -58 -38 -12 5 -19 0
-23 -15 -3 -11 -10 -21 -17 -21 -17 -1 -51 -29 -43 -36 3 -4 24 1 46 9 l40 16
31 -30 c37 -37 38 -56 5 -71 -23 -10 -29 -8 -60 22 -42 41 -58 33 -21 -10 14
-17 26 -35 26 -39 0 -4 -16 -16 -35 -27 -61 -33 -35 -48 29 -17 34 16 37 16
56 -2 11 -10 20 -22 20 -26 0 -12 -55 -39 -79 -39 -11 0 -30 -10 -43 -23 -13
-12 -36 -32 -53 -44 -48 -35 -21 -38 38 -4 l54 31 27 -29 28 -29 -39 -26 c-23
-16 -47 -24 -56 -20 -10 3 -26 -4 -44 -22 -26 -26 -29 -27 -72 -15 -74 19
-124 48 -188 106 -131 118 -159 199 -169 485 -5 160 38 315 116 419 176 233
342 303 760 321 192 8 248 5 360 -16z m551 -256 c10 -13 35 -41 54 -63 23 -26
43 -64 56 -110 12 -38 27 -89 35 -113 15 -47 19 -189 5 -211 -7 -10 -24 -12
-75 -6 -36 3 -69 11 -72 17 -3 5 9 25 27 44 41 42 31 56 -15 21 -31 -25 -35
-25 -49 -9 -17 20 -57 97 -57 111 0 5 14 18 30 28 30 18 39 33 19 33 -6 0 -24
-9 -39 -20 l-28 -20 -21 29 c-25 35 -26 47 -6 94 15 37 35 50 60 41 8 -4 15
-1 15 5 0 6 -3 11 -7 11 -5 0 -14 4 -22 9 -11 7 -8 20 14 70 30 66 46 74 76
39z m-659 -195 c24 -21 23 -40 -3 -48 -25 -8 -76 35 -65 54 10 16 47 13 68 -6z
m-67 -45 l26 -31 -31 -20 -32 -20 -31 32 -32 32 24 20 c32 26 45 24 76 -13z
m-88 -50 c30 -28 29 -42 -2 -56 -36 -17 -42 -15 -62 14 -16 26 -16 27 6 45 29
24 30 24 58 -3z m154 -24 l24 -25 -25 -19 c-32 -25 -32 -25 -61 6 l-24 26 24
19 c30 24 33 24 62 -7z m-234 -36 c21 -20 22 -23 6 -40 -22 -25 -52 -23 -62 5
-6 15 -4 27 7 40 19 22 21 21 49 -5z m170 -52 c-3 -6 -16 -18 -31 -25 -24 -14
-28 -13 -56 14 -33 32 -31 41 13 60 29 12 33 11 55 -12 13 -14 21 -31 19 -37z
m103 35 c0 -11 -28 -41 -39 -41 -20 0 -20 16 1 32 26 20 38 23 38 9z m-358
-46 c10 -21 8 -28 -8 -40 -26 -19 -38 -19 -58 4 -16 18 -16 20 11 40 36 26 41
26 55 -4z m158 -65 c-32 -25 -39 -25 -67 2 l-23 22 27 28 27 28 31 -30 30 -31
-25 -19z m406 25 c-14 -11 -24 -12 -39 -3 -21 11 -21 11 3 30 21 17 25 18 39
3 15 -15 14 -17 -3 -30z m-268 23 c19 -19 15 -48 -8 -48 -11 0 -20 -7 -20 -15
0 -19 -9 -19 -32 2 -24 21 -23 39 4 57 27 19 40 20 56 4z m194 -22 l28 -35
-32 -15 c-39 -20 -64 -13 -83 24 -13 26 -13 29 8 43 33 24 49 20 79 -17z
m-572 -17 c7 -11 9 -23 6 -26 -7 -7 -46 26 -46 39 0 17 30 7 40 -13z m108 -22
c2 -10 -3 -17 -12 -17 -18 0 -29 16 -21 31 9 14 29 6 33 -14z m193 -13 l24
-26 -24 -19 c-29 -24 -34 -24 -56 1 -17 18 -17 21 -1 45 21 31 27 31 57 -1z
m176 4 c28 -26 29 -45 3 -53 -21 -7 -49 5 -70 31 -12 14 -12 18 5 30 25 19 35
18 62 -8z m-303 -5 c9 -23 -12 -43 -24 -23 -5 8 -10 21 -10 28 0 18 27 15 34
-5z m479 -21 c24 -21 22 -25 -21 -50 l-39 -22 -21 23 c-28 30 -28 31 10 55 33
21 40 20 71 -6z m-581 -4 c22 1 42 -24 34 -43 -11 -30 -34 -27 -65 7 -36 40
-39 53 -8 43 12 -4 30 -7 39 -7z m-54 -47 l32 -40 -22 -15 c-31 -22 -32 -21
-62 25 -26 39 -27 41 -9 55 25 19 26 19 61 -25z m400 3 c-10 -10 -28 6 -28 24
0 15 1 15 17 -1 9 -9 14 -19 11 -23z m-69 12 c10 -11 10 -20 0 -38 -16 -32
-15 -31 -38 -18 -25 13 -26 27 -4 52 20 22 27 22 42 4z m-114 -15 c0 -23 -31
-37 -49 -22 -13 11 -14 17 -4 28 14 17 53 13 53 -6z m315 -6 c23 -24 23 -26 7
-43 -13 -12 -21 -14 -34 -6 -29 18 -38 41 -24 58 18 21 23 20 51 -9z m-605
-36 c32 -38 29 -60 -9 -74 -25 -9 -31 -6 -58 24 -33 37 -32 50 3 68 33 17 34
17 64 -18z m498 9 c12 -6 29 -14 37 -18 22 -11 23 -33 2 -47 -16 -10 -25 -7
-52 16 -23 19 -31 33 -27 44 8 20 10 21 40 5z m-275 -15 c-5 -25 -28 -28 -28
-4 0 12 6 21 16 21 9 0 14 -7 12 -17z m122 -37 c-16 -20 -34 -20 -50 -1 -10
13 -9 19 5 36 19 20 19 20 39 0 16 -17 17 -23 6 -35z m329 10 l22 -23 -24 -16
c-23 -15 -26 -15 -46 7 -19 21 -20 23 -4 39 22 22 25 22 52 -7z m-534 -7 c10
-16 -4 -59 -19 -59 -7 0 -21 9 -31 20 -15 16 -15 22 -5 35 14 17 46 20 55 4z
m328 -17 c14 -16 15 -21 3 -37 -17 -24 -36 -11 -36 26 0 33 10 37 33 11z
m-183 -7 c7 -9 11 -17 9 -18 -35 -27 -70 -47 -82 -47 -20 0 -34 23 -18 28 7 2
24 15 39 28 32 28 36 29 52 9z m130 -44 c0 -5 -7 -14 -16 -22 -13 -11 -19 -8
-39 17 -22 27 -22 30 -7 47 16 18 17 18 39 -8 13 -14 23 -30 23 -34z m194 30
c19 -21 15 -35 -14 -51 -15 -8 -23 -6 -39 12 -19 20 -20 23 -4 40 21 23 36 23
57 -1z m-542 -8 c25 -22 23 -38 -9 -58 -26 -18 -27 -17 -50 11 l-23 29 23 17
c28 22 36 22 59 1z m679 -14 c35 -25 37 -42 5 -57 -21 -9 -28 -6 -56 23 -30
31 -31 34 -13 44 25 15 31 14 64 -10z m-402 -25 c24 -30 21 -38 -21 -60 -29
-15 -32 -15 -51 4 l-20 20 22 31 c27 38 43 39 70 5z m201 -9 c16 -20 6 -45
-19 -45 -26 0 -34 15 -21 40 13 24 23 25 40 5z m132 -12 c34 -33 35 -38 3 -59
-25 -16 -27 -16 -55 11 l-30 29 22 23 c27 29 26 29 60 -4z m-682 -8 c10 -12
10 -18 0 -30 -16 -19 -41 -19 -66 -1 -19 15 -19 15 1 30 26 20 49 20 65 1z
m110 2 c0 -16 -34 -66 -41 -62 -15 10 -10 37 9 51 16 13 32 18 32 11z m385
-56 c-10 -16 -25 -3 -25 22 0 20 1 20 16 5 9 -9 13 -21 9 -27z m-324 4 c9 3
22 -7 32 -25 10 -17 30 -42 45 -55 16 -15 26 -35 27 -52 0 -15 4 -26 8 -25 5
2 21 -8 36 -22 18 -17 34 -24 45 -20 15 6 15 8 1 24 -14 15 -13 18 10 28 35
16 35 16 35 -18 0 -22 -11 -40 -43 -69 -77 -72 -144 -121 -163 -121 -17 1
-194 159 -194 173 0 13 81 127 90 127 6 0 10 9 10 21 0 11 5 30 11 41 11 20
13 20 24 5 7 -10 19 -15 26 -12z m87 9 c19 -13 21 -18 10 -31 -11 -13 -14 -12
-30 7 -32 39 -20 53 20 24z m150 4 c9 -9 7 -17 -10 -35 -25 -27 -41 -29 -59
-7 -11 14 -10 19 10 35 27 22 42 24 59 7z m212 -17 l21 -30 -22 -11 c-18 -10
-25 -9 -41 8 -16 16 -18 23 -9 41 16 28 26 27 51 -8z m-578 -8 c19 -17 25 -43
9 -43 -4 0 -29 -16 -54 -35 -52 -40 -91 -45 -107 -15 -14 25 -8 34 30 50 26
11 33 10 50 -5 25 -23 39 -11 21 17 -12 19 -11 23 5 35 23 16 24 16 46 -4z
m708 2 c11 -13 10 -18 -6 -30 -42 -32 -79 -10 -42 24 26 25 32 26 48 6z m-310
-28 c0 -8 -9 -22 -19 -31 -26 -23 -39 -2 -15 25 20 22 34 25 34 6z m-110 -13
c11 -12 10 -18 -3 -32 -15 -15 -19 -15 -32 -1 -17 17 -11 49 10 49 7 0 18 -7
25 -16z m219 -3 c11 -11 17 -22 14 -25 -12 -11 -41 -6 -54 10 -10 13 -10 17 2
25 18 11 16 12 38 -10z m251 -4 c0 -16 -47 -40 -62 -31 -5 4 3 15 19 25 33 22
43 24 43 6z m-123 -14 c6 -16 -30 -34 -47 -23 -11 7 -12 11 0 25 15 18 41 17
47 -2z m-197 -19 c0 -16 -27 -43 -42 -44 -12 0 -9 35 4 48 17 17 38 15 38 -4z
m370 -24 c0 -4 -11 -15 -24 -23 -22 -15 -25 -15 -41 3 -16 18 -15 19 12 33 27
15 53 8 53 -13z m-480 5 c-7 -8 -16 -12 -21 -9 -13 8 -1 24 18 24 13 0 13 -3
3 -15z m-360 -14 c-12 -24 -29 -35 -38 -26 -4 3 4 15 18 25 31 24 33 24 20 1z
m708 7 c-5 -15 -48 -24 -48 -10 0 14 12 22 33 22 10 0 17 -5 15 -12z m-87 -28
c34 0 37 -13 8 -34 -17 -11 -25 -12 -40 -3 -25 15 -33 38 -17 48 7 5 15 4 16
-1 2 -6 17 -10 33 -10z m139 -21 c0 -14 -42 -21 -54 -9 -16 17 22 44 41 29 7
-6 13 -15 13 -20z m-207 -25 c12 -14 22 -31 22 -37 0 -7 12 -12 27 -12 31 -1
78 -24 78 -39 0 -16 -153 -155 -171 -156 -33 0 -61 -46 -70 -117 -23 -192 -34
-223 -75 -223 -24 0 -25 21 -3 110 17 68 19 94 11 102 -13 13 -10 21 -43 -102
-15 -56 -32 -94 -51 -115 -49 -53 -54 0 -13 138 17 58 19 97 5 97 -5 0 -14
-17 -19 -37 -5 -21 -16 -64 -25 -96 -17 -68 -12 -61 -51 -74 -16 -6 -29 -16
-27 -22 4 -19 -17 -12 -28 9 -13 24 23 132 76 227 37 66 38 87 4 65 -23 -14
-66 -16 -74 -4 -7 11 78 92 95 92 8 0 29 17 49 38 43 45 134 129 174 160 40
30 80 29 109 -4z m-633 -4 c-14 -11 -34 -20 -44 -20 -18 0 -18 1 -1 20 10 11
30 20 44 20 l26 0 -25 -20z m778 -7 c5 -17 -26 -29 -40 -15 -6 6 -7 15 -3 22
9 14 37 9 43 -7z m109 -40 c-16 -16 -18 -16 -40 5 -22 23 -22 23 -2 38 17 13
21 12 39 -6 19 -19 19 -21 3 -37z m-1084 -37 c35 -5 87 -38 87 -55 0 -4 -18
-17 -40 -31 -22 -14 -40 -29 -40 -33 0 -5 11 -18 25 -29 14 -11 25 -24 25 -29
0 -6 -22 -19 -50 -31 -27 -11 -50 -27 -50 -34 0 -26 44 -11 88 30 l24 21 24
-28 c30 -36 31 -52 2 -42 -47 14 -63 11 -60 -11 3 -26 -22 -38 -48 -24 -15 8
-21 6 -29 -9 -6 -10 -39 -32 -73 -49 -72 -35 -90 -31 -113 25 -19 44 -19 94 0
158 7 28 24 84 36 125 11 41 23 80 25 87 2 8 21 5 65 -12 34 -14 80 -27 102
-29z m1011 33 c-3 -5 -10 -7 -15 -3 -5 3 -7 10 -3 15 3 5 10 7 15 3 5 -3 7
-10 3 -15z m-794 1 c0 -12 -28 -25 -36 -17 -9 9 6 27 22 27 8 0 14 -5 14 -10z
m92 -17 c21 -18 23 -33 6 -33 -14 0 -48 30 -48 42 0 13 22 9 42 -9z m-156 -15
c8 -12 -22 -38 -43 -38 -20 0 -28 30 -12 41 20 12 47 11 55 -3z m1121 -22 c-3
-21 4 -74 19 -133 13 -54 24 -119 24 -146 0 -43 -3 -49 -32 -67 -75 -46 -148
-31 -148 30 0 17 -6 39 -12 50 -11 17 -10 22 2 30 8 5 20 8 27 6 6 -3 13 4 16
15 4 14 -5 30 -31 54 -35 32 -36 35 -19 52 14 14 21 15 37 6 44 -28 25 30 -22
67 -38 29 -35 40 10 41 20 0 55 6 77 14 58 19 58 18 52 -19z m-1006 3 c18 -35
-5 -48 -36 -19 -13 12 -22 27 -19 31 10 17 43 9 55 -12z m779 -15 c0 -9 -7
-14 -17 -12 -25 5 -28 28 -4 28 12 0 21 -6 21 -16z m-838 -11 c25 -22 23 -38
-8 -58 -25 -16 -27 -16 -50 6 -30 28 -30 31 4 51 33 21 32 21 54 1z m183 -13
c4 -6 1 -17 -5 -25 -14 -17 -47 -4 -57 22 -13 32 42 35 62 3z m598 -42 c-21
-20 -23 -21 -41 -5 -14 13 -21 14 -30 5 -7 -7 -12 -8 -12 -2 0 5 14 21 32 36
33 27 33 27 53 7 19 -19 19 -19 -2 -41z m121 28 c9 -13 7 -20 -8 -31 -23 -17
-46 -4 -46 25 0 32 36 36 54 6z m-790 -18 c19 -27 20 -38 5 -38 -14 0 -38 30
-39 48 0 19 17 14 34 -10z m-190 -17 c21 -23 14 -38 -21 -52 -18 -6 -30 -6
-40 2 -11 10 -10 15 7 31 11 10 20 23 20 28 0 16 16 11 34 -9z m147 -17 l24
-26 -24 -19 c-30 -24 -33 -24 -62 7 l-24 25 25 19 c32 25 32 25 61 -6z m758
-32 c-32 -23 -43 -21 -47 5 -2 13 5 27 19 37 21 14 24 14 37 -5 13 -19 12 -22
-9 -37z m-649 5 c0 -29 -30 -55 -70 -59 -49 -4 -52 8 -6 27 18 8 36 21 39 30
8 18 37 20 37 2z m526 -14 c23 -31 39 -103 23 -103 -27 0 -109 63 -109 84 0
16 32 46 50 46 9 0 25 -12 36 -27z m-712 -20 c19 -26 19 -26 -5 -44 -31 -24
-38 -24 -66 3 -27 26 -29 43 -5 57 29 17 56 12 76 -16z m909 -7 c15 -22 15
-25 -4 -42 -15 -14 -24 -16 -36 -8 -29 18 -38 41 -24 58 19 23 46 20 64 -8z
m-128 4 c3 -5 1 -10 -4 -10 -6 0 -11 5 -11 10 0 6 2 10 4 10 3 0 8 -4 11 -10z
m-141 -67 c25 -27 46 -55 46 -64 0 -25 -27 -43 -49 -33 -19 9 -91 98 -91 112
0 4 10 12 23 18 12 7 23 12 24 13 1 0 22 -20 47 -46z m196 12 c18 -19 21 -28
12 -37 -15 -15 -52 16 -52 44 0 25 12 23 40 -7z m-591 3 c0 -7 -21 -56 -47
-108 -32 -65 -56 -99 -75 -110 -24 -13 -29 -13 -37 0 -15 23 -12 58 5 72 47
40 49 41 31 47 -13 5 -11 14 14 59 29 49 33 52 70 52 26 0 40 -5 39 -12z
m-189 -26 c0 -13 -47 -35 -59 -28 -16 10 -13 24 7 29 30 8 52 7 52 -1z m30
-52 c-26 -51 -64 -78 -85 -60 -8 7 -12 17 -9 22 8 12 97 77 107 78 4 0 -2 -18
-13 -40z m-96 -2 c-5 -8 -34 -11 -34 -4 0 2 -3 11 -6 20 -5 13 -2 13 19 3 14
-6 23 -15 21 -19z m816 22 c0 -5 -7 -10 -15 -10 -8 0 -15 -7 -15 -15 0 -21
-30 -31 -41 -14 -15 23 -10 37 14 42 41 8 57 7 57 -3z m98 -18 c3 -9 -2 -13
-14 -10 -9 1 -19 9 -22 16 -3 9 2 13 14 10 9 -1 19 -9 22 -16z m-964 -11 c16
-18 16 -20 -5 -40 -13 -12 -26 -21 -30 -21 -4 0 -14 -2 -22 -6 -8 -3 -21 5
-30 20 -16 24 -16 25 16 44 41 26 50 26 71 3z m634 -18 c28 -40 36 -72 22 -88
-16 -19 -44 -19 -60 0 -13 16 -5 115 10 115 5 0 17 -12 28 -27z m282 -3 c0 -5
-2 -10 -4 -10 -3 0 -8 5 -11 10 -3 6 -1 10 4 10 6 0 11 -4 11 -10z m-161 -52
c-47 -37 -59 -41 -59 -19 0 12 13 26 38 38 43 21 56 9 21 -19z m128 25 c2 -6
-6 -17 -18 -23 -17 -10 -23 -9 -30 1 -4 8 -3 19 3 27 13 15 40 12 45 -5z m114
-26 c18 -13 43 -19 76 -19 50 1 50 0 62 -37 61 -205 16 -498 -93 -602 -45 -44
-126 -78 -126 -53 0 10 -7 13 -23 9 -19 -5 -26 -1 -36 22 -12 26 -11 30 20 55
27 22 29 28 14 28 -10 0 -27 -7 -37 -17 -17 -15 -19 -15 -38 2 -26 23 -25 32
3 56 27 23 36 23 59 2 30 -27 22 6 -17 72 -20 32 -34 59 -33 60 2 1 19 13 38
27 19 13 43 23 54 20 11 -2 16 0 12 6 -3 6 1 17 9 25 21 21 20 44 -1 26 -13
-11 -19 -8 -39 17 -14 16 -24 32 -25 37 0 4 23 21 50 38 28 17 50 35 50 41 0
6 -11 19 -25 30 -34 27 -32 40 12 69 41 26 59 66 26 55 -24 -8 -58 26 -49 49
6 17 12 15 57 -18z m-945 11 c7 -11 -47 -68 -66 -68 -5 0 -14 9 -20 20 -9 17
-6 23 22 40 38 23 54 25 64 8z m764 -36 c0 -22 -65 -66 -85 -58 -24 9 -18 24
26 56 43 31 59 31 59 2z m114 -6 c14 -23 14 -26 0 -40 -21 -22 -29 -20 -54 11
-20 26 -20 28 -4 40 26 19 40 16 58 -11z m-840 -82 c-16 -13 -35 -24 -41 -24
-17 0 -48 49 -37 59 5 4 22 17 38 30 l30 22 20 -32 20 -32 -30 -23z m-130 53
c8 -12 5 -21 -8 -36 -22 -25 -32 -26 -52 -7 -20 20 -18 32 8 50 26 18 37 17
52 -7z m651 -10 c13 -10 15 -16 6 -21 -17 -11 -41 0 -41 19 0 19 11 19 35 2z
m249 -12 c22 -33 21 -37 -19 -64 l-36 -24 -24 23 -25 24 32 33 c38 39 51 41
72 8z m-638 -17 c3 -13 13 -31 21 -40 13 -15 12 -18 -5 -27 -17 -9 -25 -6 -47
20 -24 30 -25 33 -9 50 22 25 31 24 40 -3z m488 3 c16 -18 16 -20 -16 -44 -28
-23 -35 -25 -52 -13 -30 19 -29 29 7 53 40 27 40 27 61 4z m-699 -68 c-33 -29
-51 -29 -66 -1 -10 19 -8 25 16 45 l27 24 25 -23 24 -23 -26 -22z m163 17 c12
-16 22 -32 22 -35 0 -3 -14 -14 -32 -25 l-32 -19 -28 26 c-35 33 -35 44 0 65
38 23 45 22 70 -12z m367 5 c-16 -14 -33 -25 -37 -25 -5 0 -8 -7 -8 -15 0 -17
-9 -19 -29 -6 -10 7 -4 16 29 40 52 38 90 43 45 6z m-87 3 c-3 -7 -13 -15 -24
-17 -16 -3 -17 -1 -5 13 16 19 34 21 29 4z m-94 -17 c27 -30 9 -47 -20 -20
-13 12 -21 26 -18 30 8 14 19 11 38 -10z m406 -6 l24 -26 -34 -29 c-41 -35
-55 -37 -70 -11 -14 28 -13 33 15 64 32 33 36 33 65 2z m154 3 c22 -30 21 -31
-23 -60 l-40 -26 -20 22 c-12 12 -21 25 -21 29 0 7 71 57 82 57 4 0 14 -10 22
-22z m-312 -5 c25 -22 23 -27 -20 -57 -46 -31 -56 -33 -42 -5 6 11 9 25 7 32
-4 11 20 47 31 47 3 0 14 -7 24 -17z m-502 -67 c0 -18 -33 -46 -55 -46 -17 0
-65 46 -65 64 0 2 15 13 32 25 l33 20 27 -26 c16 -15 28 -31 28 -37z m220 34
c8 -15 4 -23 -17 -40 l-28 -21 -17 21 c-24 30 -23 45 5 57 27 12 44 7 57 -17z
m125 -16 c30 -20 31 -30 6 -43 -26 -15 -78 24 -60 45 15 18 24 18 54 -2z
m-207 -26 c15 -25 15 -28 -3 -47 -25 -28 -37 -26 -68 9 l-27 30 32 20 c39 24
45 23 66 -12z m442 -27 c0 -4 -11 -18 -25 -31 -21 -19 -30 -22 -43 -14 -27 18
-26 42 5 69 l28 24 18 -20 c9 -12 17 -24 17 -28z m136 28 c19 -21 19 -21 -20
-55 l-40 -34 -23 22 -23 22 32 33 c37 39 48 40 74 12z m-825 -20 l22 -32 -22
-18 c-24 -20 -35 -17 -78 20 -29 24 -29 27 5 45 39 22 48 20 73 -15z m395 -3
l28 -23 -29 -27 -29 -27 -30 31 -31 31 24 20 c30 24 34 24 67 -5z m-206 -65
c0 -5 -17 -19 -37 -31 l-37 -22 -28 31 c-15 17 -28 35 -28 39 0 4 17 17 38 29
l37 22 28 -30 c15 -16 27 -33 27 -38z m312 37 c-6 -6 -15 -8 -19 -4 -4 4 -1
11 7 16 19 12 27 3 12 -12z m-170 -51 c7 -14 5 -24 -8 -38 -23 -26 -35 -24
-70 12 l-29 31 29 24 c27 24 29 24 48 7 11 -10 24 -26 30 -36z m558 -2 c0 -7
-16 -23 -35 -35 -35 -21 -37 -21 -55 -5 -28 26 -25 38 18 69 l37 26 18 -21 c9
-12 17 -27 17 -34z m-300 -2 c0 -7 -7 -13 -15 -13 -10 0 -15 10 -15 33 1 30 1
31 15 13 8 -11 15 -26 15 -33z m-115 16 c22 -18 29 -19 36 -8 5 10 11 11 19 3
7 -7 -7 -21 -44 -46 l-53 -36 -27 26 -26 26 27 28 c32 34 33 34 68 7z m235
-40 c-32 -27 -36 -28 -47 -12 -18 23 -17 25 20 49 28 19 34 20 47 7 13 -13 11
-18 -20 -44z m-613 -24 c-2 -5 -16 -14 -31 -20 -25 -8 -31 -6 -52 20 l-24 30
26 23 27 24 28 -34 c16 -18 27 -37 26 -43z m148 9 l28 -36 -29 -24 c-16 -13
-33 -23 -38 -24 -14 0 -66 52 -66 66 0 11 56 53 71 54 4 0 19 -16 34 -36z
m529 -3 c14 -15 15 -24 7 -40 -12 -21 -41 -41 -60 -41 -19 0 -12 38 10 53 13
10 17 17 10 22 -12 7 -6 25 8 25 4 0 16 -9 25 -19z m-393 -13 c24 -29 24 -41
-1 -63 -19 -17 -21 -17 -40 0 -20 19 -27 45 -11 45 5 0 11 9 14 20 7 26 14 25
38 -2z m129 -8 c-37 -28 -50 -24 -15 4 17 13 32 22 35 19 3 -2 -6 -13 -20 -23z
m124 11 c17 -19 16 -21 -23 -46 -62 -42 -87 -9 -30 39 17 14 32 26 33 26 2 0
11 -9 20 -19z m-490 -42 c33 -39 33 -45 -4 -64 -28 -14 -30 -14 -55 12 -31 34
-31 46 -2 66 30 22 32 21 61 -14z m171 -29 c21 -24 16 -41 -19 -60 -25 -13
-29 -12 -52 12 l-26 25 34 21 c41 27 41 27 63 2z m385 -21 c0 -14 -69 -61 -80
-54 -5 3 -14 14 -20 25 -8 15 -3 22 33 44 38 23 43 23 55 9 6 -9 12 -20 12
-24z m133 12 c9 -16 17 -31 17 -34 0 -3 -16 -14 -35 -25 l-34 -21 -22 31 -23
31 30 23 c38 31 46 30 67 -5z m-768 -17 c15 -19 25 -36 24 -37 -2 -1 -19 -11
-38 -21 l-34 -19 -28 34 c-16 19 -29 37 -29 40 0 5 59 37 71 38 4 1 19 -15 34
-35z m404 6 c6 0 14 7 17 15 9 22 34 19 34 -4 0 -15 -60 -81 -75 -81 -2 0 -19
14 -37 31 l-33 30 24 20 c21 18 26 18 41 4 9 -8 22 -15 29 -15z m-239 -45 c19
-21 21 -27 10 -40 -28 -34 -50 -38 -76 -14 -30 28 -30 43 -2 63 30 22 41 20
68 -9z m155 -15 c23 -24 26 -32 16 -44 -21 -25 -51 -29 -72 -10 -23 21 -24 42
-2 66 21 24 24 23 58 -12z m359 1 c14 -27 14 -29 -14 -50 -59 -43 -89 -14 -43
43 15 20 31 36 35 36 4 0 14 -13 22 -29z m-160 3 c23 -22 20 -29 -24 -65 -69
-55 -43 -70 29 -17 42 30 44 31 57 13 18 -25 17 -35 -6 -65 -11 -14 -20 -31
-20 -39 0 -15 -29 -10 -87 14 -45 19 -49 48 -19 118 27 59 43 69 70 41z m-446
-44 c29 -38 28 -42 -10 -64 l-31 -19 -29 32 c-15 17 -28 35 -28 39 0 7 56 40
71 41 3 1 15 -12 27 -29z m182 -40 c9 -17 6 -22 -25 -37 -26 -13 -41 -14 -52
-7 -26 16 -25 27 2 57 21 22 30 25 45 17 11 -6 24 -19 30 -30z m140 5 c0 -7
-9 -23 -19 -36 -19 -23 -19 -24 -40 -5 -27 24 -26 28 6 48 29 17 53 14 53 -7z
m331 1 c10 -20 8 -28 -10 -47 -18 -19 -24 -21 -46 -11 -32 15 -32 35 1 61 34
27 42 26 55 -3z m555 -11 c26 -18 69 -119 60 -141 -4 -11 -12 -14 -24 -9 -9 4
-25 10 -36 13 -31 9 -14 -21 25 -42 73 -40 98 -115 29 -89 -45 17 -45 3 1 -37
32 -27 41 -41 36 -54 -7 -18 -18 -18 -74 -1 -19 6 -23 4 -23 -14 0 -14 8 -23
25 -27 30 -8 32 -29 4 -44 -15 -9 -24 -8 -35 0 -18 16 -44 6 -45 -17 0 -10
-14 -29 -30 -42 -23 -18 -38 -22 -64 -18 -25 4 -33 2 -29 -8 6 -14 -45 -33
-146 -55 -30 -7 -82 -24 -115 -37 -144 -59 -192 -65 -258 -32 -88 44 -104 84
-75 182 14 47 129 174 147 162 21 -12 58 4 65 27 6 21 7 21 16 6 17 -27 42
-11 35 22 -5 23 -1 32 25 50 25 18 34 19 45 10 8 -7 15 -15 15 -19 0 -4 -26
-32 -57 -64 -31 -31 -53 -60 -50 -64 9 -9 57 18 57 32 0 6 13 24 29 39 l29 28
22 -41 21 -42 48 40 c91 76 94 98 4 31 l-53 -41 -10 26 c-15 40 -13 47 30 88
38 36 44 37 127 43 l88 7 30 61 c18 35 40 66 55 73 31 16 31 16 56 -2z m-1136
-47 l21 -23 -27 -23 -27 -24 -26 27 -26 26 25 19 c32 25 35 25 60 -2z m150
-38 c-29 -23 -51 -25 -68 -8 -18 18 -15 24 21 47 l32 20 20 -20 20 -20 -25
-19z m357 -11 c-16 -26 -51 -20 -55 9 -2 13 2 30 9 38 10 13 15 12 35 -7 19
-18 21 -24 11 -40z m123 31 c9 -17 8 -20 -9 -20 -11 0 -24 -8 -30 -17 -9 -17
-10 -17 -17 0 -4 11 0 25 11 37 23 25 32 25 45 0z m-1123 -51 c20 -13 40 -37
50 -60 11 -28 21 -39 36 -39 21 0 20 -1 -6 -25 -25 -24 -36 -55 -19 -55 4 0
21 13 37 28 48 45 63 50 106 39 22 -5 39 -13 39 -18 0 -4 -20 -22 -45 -40 -25
-18 -45 -38 -45 -46 0 -19 4 -17 57 21 74 52 90 58 113 46 31 -17 24 -45 -20
-80 -22 -17 -40 -38 -40 -46 0 -20 6 -18 50 17 29 24 42 29 56 21 15 -9 14
-11 -9 -27 -27 -17 -37 -45 -17 -45 6 0 24 7 40 15 28 14 29 14 49 -14 12 -16
21 -34 21 -40 0 -22 32 -10 86 31 32 24 59 37 64 32 33 -34 93 -204 82 -233
-3 -7 -28 -24 -56 -37 -43 -20 -67 -24 -153 -24 -113 0 -152 12 -249 76 -45
30 -69 38 -148 49 -101 14 -136 27 -136 50 0 8 -11 17 -25 21 -31 8 -33 22 -3
26 12 2 23 9 26 16 2 8 -10 12 -42 12 -77 0 -70 39 11 63 62 18 54 33 -17 28
-37 -2 -60 1 -60 7 0 17 56 52 109 68 47 14 69 29 58 40 -3 3 -32 0 -66 -7
-60 -13 -62 -13 -87 12 l-25 25 35 44 c34 43 69 69 95 70 7 0 29 -10 48 -21z
m542 7 c14 -16 -5 -26 -47 -26 l-27 0 25 20 c30 23 34 24 49 6z m661 -23 c0
-11 -80 -56 -87 -49 -12 12 8 36 39 45 43 12 48 12 48 4z m-171 -20 c3 -2 -3
-11 -13 -21 -16 -16 -18 -16 -32 2 -8 11 -14 24 -14 28 0 8 49 0 59 -9z m-49
-56 c0 -5 -9 -11 -20 -14 -22 -6 -28 -33 -7 -33 7 0 19 6 26 13 10 10 15 8 26
-7 16 -21 10 -40 -10 -32 -8 3 -25 -4 -38 -14 -13 -11 -27 -16 -31 -13 -8 8
-8 127 1 149 5 15 9 13 30 -12 12 -16 23 -33 23 -37z m100 15 c0 -37 -36 -74
-50 -52 -14 22 -12 31 12 57 28 30 38 29 38 -5z m160 24 c0 -3 -4 -8 -10 -11
-5 -3 -10 -1 -10 4 0 6 5 11 10 11 6 0 10 -2 10 -4z m-770 -13 c0 -10 -32 -43
-42 -43 -16 0 -40 29 -33 40 7 11 75 14 75 3z m70 -19 c0 -8 -5 -12 -10 -9 -6
4 -8 11 -5 16 9 14 15 11 15 -7z m-32 -30 c15 -15 14 -18 -13 -41 -27 -24 -29
-24 -42 -7 -11 15 -10 21 9 41 26 27 25 27 46 7z m-73 -79 c0 -10 -5 -20 -11
-22 -13 -4 -27 24 -18 38 9 15 29 4 29 -16z m101 -31 c-7 -20 -32 -18 -41 3
-4 12 1 24 17 37 23 18 23 18 26 -4 2 -12 1 -28 -2 -36z m-56 -19 c11 -13 10
-18 -6 -30 -16 -12 -21 -12 -33 0 -12 11 -12 17 -1 29 16 20 24 20 40 1z"/>
<path d="M2018 4295 c-10 -13 -18 -29 -18 -34 0 -6 -4 -11 -10 -11 -5 0 -10
-7 -10 -15 0 -19 9 -19 32 1 15 14 20 15 35 3 15 -13 16 -12 9 11 -4 14 -8 33
-7 42 0 27 -12 28 -31 3z"/>
</g>
</svg>
